<?xml version="1.0" encoding="UTF-8"?>
<!DOCTYPE svg PUBLIC "-//W3C//DTD SVG 1.1//EN" "http://www.w3.org/Graphics/SVG/1.1/DTD/svg11.dtd">
<svg xmlns="http://www.w3.org/2000/svg" version="1.1" width="500px" height="500px" style="shape-rendering:geometricPrecision; text-rendering:geometricPrecision; image-rendering:optimizeQuality; fill-rule:evenodd; clip-rule:evenodd" xmlns:xlink="http://www.w3.org/1999/xlink">
<g><path style="opacity:0.994" fill="#fefefd" d="M 173.5,139.5 C 240.167,139.5 306.833,139.5 373.5,139.5C 369.5,158.167 365.5,176.833 361.5,195.5C 344.5,195.5 327.5,195.5 310.5,195.5C 311.037,190.814 311.704,186.147 312.5,181.5C 311.167,181.5 309.833,181.5 308.5,181.5C 307.423,187.884 306.09,194.217 304.5,200.5C 324.492,201.333 344.492,201.833 364.5,202C 346.345,215.91 328.012,229.577 309.5,243C 304.582,243.195 299.749,243.695 295,244.5C 290.338,265.481 285.838,286.481 281.5,307.5C 235.424,308.479 189.591,308.813 144,308.5C 140.316,308.63 136.816,308.13 133.5,307C 160.093,266.234 186.093,225.067 211.5,183.5C 211.167,183.167 210.833,182.833 210.5,182.5C 193.833,190.167 177.167,197.833 160.5,205.5C 160.167,204.833 159.833,204.167 159.5,203.5C 164.486,182.223 169.153,160.889 173.5,139.5 Z M 249.5,211.5 C 247.554,225.733 244.721,240.066 241,254.5C 233.027,258.744 224.86,262.244 216.5,265C 227.752,247.264 238.752,229.431 249.5,211.5 Z"/></g>
<g><path style="opacity:1" fill="#fefee0" d="M 365.5,144.5 C 327.167,144.5 288.833,144.5 250.5,144.5C 250.5,145.5 250.5,146.5 250.5,147.5C 249.566,146.432 249.232,145.099 249.5,143.5C 288.337,143.168 327.004,143.501 365.5,144.5 Z"/></g>
<g><path style="opacity:1" fill="#efdb8e" d="M 365.5,144.5 C 365.5,144.833 365.5,145.167 365.5,145.5C 327.152,144.839 289.152,145.506 251.5,147.5C 251.167,147.5 250.833,147.5 250.5,147.5C 250.5,146.5 250.5,145.5 250.5,144.5C 288.833,144.5 327.167,144.5 365.5,144.5 Z"/></g>
<g><path style="opacity:1" fill="#d9b728" d="M 365.5,145.5 C 365.956,150.596 364.956,155.262 362.5,159.5C 363.167,155.167 363.833,150.833 364.5,146.5C 325.479,146.164 289.813,146.497 257.5,147.5C 258.078,151.773 259.411,155.773 261.5,159.5C 257.82,155.817 254.486,151.817 251.5,147.5C 289.152,145.506 327.152,144.839 365.5,145.5 Z"/></g>
<g><path style="opacity:1" fill="#e2b80d" d="M 362.5,159.5 C 360.541,167.384 359.207,175.384 358.5,183.5C 357.784,185.556 357.117,187.723 356.5,190C 343.327,190.827 330.327,190.66 317.5,189.5C 318.376,184.868 319.043,180.201 319.5,175.5C 314.167,175.5 308.833,175.5 303.5,175.5C 302.236,180.722 301.569,186.055 301.5,191.5C 298.967,196.297 297.633,201.631 297.5,207.5C 313.514,207.167 329.514,207.501 345.5,208.5C 345.137,209.183 344.804,209.85 344.5,210.5C 337.262,214.738 330.596,219.738 324.5,225.5C 319.635,227.763 315.302,230.763 311.5,234.5C 309.668,235.248 308.001,236.248 306.5,237.5C 300.729,236.887 295.396,237.554 290.5,239.5C 288.285,247.298 286.619,255.298 285.5,263.5C 284.03,266.949 282.864,270.616 282,274.5C 280.068,283.425 278.568,292.425 277.5,301.5C 277.167,301.5 276.833,301.5 276.5,301.5C 263.833,301.5 251.167,301.5 238.5,301.5C 238.5,299.5 238.5,297.5 238.5,295.5C 238.547,292.031 239.213,288.698 240.5,285.5C 242.102,281.01 243.602,276.343 245,271.5C 245.497,268.854 245.664,266.187 245.5,263.5C 249.312,247.65 252.645,231.65 255.5,215.5C 257.493,206.191 259.493,196.857 261.5,187.5C 262.222,187.082 262.722,186.416 263,185.5C 263.433,179.769 264.266,174.102 265.5,168.5C 265.841,165.182 264.508,162.848 261.5,161.5C 261.5,160.833 261.5,160.167 261.5,159.5C 259.411,155.773 258.078,151.773 257.5,147.5C 289.813,146.497 325.479,146.164 364.5,146.5C 363.833,150.833 363.167,155.167 362.5,159.5 Z"/></g>
<g><path style="opacity:1" fill="#fdf5c3" d="M 261.5,161.5 C 264.508,162.848 265.841,165.182 265.5,168.5C 264.266,174.102 263.433,179.769 263,185.5C 262.722,186.416 262.222,187.082 261.5,187.5C 262.091,181.108 263.091,174.775 264.5,168.5C 263.943,165.954 262.943,163.621 261.5,161.5 Z"/></g>
<g><path style="opacity:1" fill="#fdf8d0" d="M 365.5,145.5 C 366.643,148.976 366.81,152.642 366,156.5C 363.714,165.746 361.214,174.746 358.5,183.5C 359.207,175.384 360.541,167.384 362.5,159.5C 364.956,155.262 365.956,150.596 365.5,145.5 Z"/></g>
<g><path style="opacity:1" fill="#fefacf" d="M 317.5,189.5 C 316.842,188.207 316.508,186.707 316.5,185C 317.104,182.113 317.771,179.28 318.5,176.5C 313.833,176.5 309.167,176.5 304.5,176.5C 304.324,181.784 303.324,186.784 301.5,191.5C 301.569,186.055 302.236,180.722 303.5,175.5C 308.833,175.5 314.167,175.5 319.5,175.5C 319.043,180.201 318.376,184.868 317.5,189.5 Z"/></g>
<g><path style="opacity:1" fill="#fdfacb" d="M 301.5,191.5 C 300.659,196.532 299.659,201.532 298.5,206.5C 314.847,206.167 331.18,206.501 347.5,207.5C 347.121,209.213 346.121,210.213 344.5,210.5C 344.804,209.85 345.137,209.183 345.5,208.5C 329.514,207.501 313.514,207.167 297.5,207.5C 297.633,201.631 298.967,196.297 301.5,191.5 Z"/></g>
<g><path style="opacity:1" fill="#fdf7c6" d="M 324.5,225.5 C 320.698,229.237 316.365,232.237 311.5,234.5C 315.302,230.763 319.635,227.763 324.5,225.5 Z"/></g>
<g><path style="opacity:1" fill="#fdeeb2" d="M 306.5,237.5 C 301.302,238.259 295.969,238.925 290.5,239.5C 295.396,237.554 300.729,236.887 306.5,237.5 Z"/></g>
<g><path style="opacity:0.993" fill="#828282" d="M 349.5,232.5 C 351.233,233.008 351.566,233.841 350.5,235C 351.305,236.113 351.972,237.279 352.5,238.5C 351.89,239.391 351.557,240.391 351.5,241.5C 350.833,241.5 350.5,241.833 350.5,242.5C 349.833,242.5 349.5,242.833 349.5,243.5C 348.833,243.5 348.5,243.833 348.5,244.5C 342.031,249.574 335.031,253.907 327.5,257.5C 325.94,255.871 326.273,254.704 328.5,254C 327.692,253.692 327.025,253.192 326.5,252.5C 327.815,250.801 327.815,249.135 326.5,247.5C 334.609,243.272 342.275,238.272 349.5,232.5 Z"/></g>
<g><path style="opacity:0.982" fill="#6b6b6b" d="M 349.5,256.5 C 348.883,254.771 347.883,253.271 346.5,252C 348.566,250.411 350.232,248.578 351.5,246.5C 351.333,245.833 351.167,245.167 351,244.5C 350.184,245.823 349.017,246.489 347.5,246.5C 347.833,245.833 348.167,245.167 348.5,244.5C 349.167,244.5 349.5,244.167 349.5,243.5C 350.167,243.5 350.5,243.167 350.5,242.5C 351.167,242.5 351.5,242.167 351.5,241.5C 352.906,241.027 353.573,240.027 353.5,238.5C 353.167,238.5 352.833,238.5 352.5,238.5C 351.972,237.279 351.305,236.113 350.5,235C 351.566,233.841 351.233,233.008 349.5,232.5C 351.205,229.958 352.705,227.292 354,224.5C 355.127,227.377 355.794,230.377 356,233.5C 356.667,232.167 357.333,232.167 358,233.5C 360.777,243.228 357.944,250.895 349.5,256.5 Z M 353.5,238.5 C 353.517,236.972 354.184,236.472 355.5,237C 354.956,237.717 354.289,238.217 353.5,238.5 Z"/></g>
<g><path style="opacity:1" fill="#fdfadb" d="M 255.5,215.5 C 252.645,231.65 249.312,247.65 245.5,263.5C 245.167,263.5 244.833,263.5 244.5,263.5C 244.784,260.223 244.451,257.057 243.5,254C 244.667,253.5 245.5,252.667 246,251.5C 246.258,243.331 248.258,235.331 252,227.5C 252.333,224.5 252.667,221.5 253,218.5C 253.852,217.429 254.685,216.429 255.5,215.5 Z"/></g>
<g><path style="opacity:1" fill="#afafaf" d="M 326.5,247.5 C 327.815,249.135 327.815,250.801 326.5,252.5C 327.025,253.192 327.692,253.692 328.5,254C 326.273,254.704 325.94,255.871 327.5,257.5C 320.648,261.092 313.648,264.426 306.5,267.5C 305.482,266.807 304.482,266.141 303.5,265.5C 303.5,264.833 303.5,264.167 303.5,263.5C 303.5,262.833 303.167,262.5 302.5,262.5C 302.238,261.022 302.571,259.689 303.5,258.5C 311.282,255.02 318.949,251.353 326.5,247.5 Z"/></g>
<g><path style="opacity:1" fill="#898989" d="M 349.5,256.5 C 343.806,260.68 337.806,264.346 331.5,267.5C 331.423,266.25 330.756,265.417 329.5,265C 330.5,264 331.5,263 332.5,262C 332.026,260.271 331.026,259.105 329.5,258.5C 335.807,255.009 341.807,251.009 347.5,246.5C 349.017,246.489 350.184,245.823 351,244.5C 351.167,245.167 351.333,245.833 351.5,246.5C 350.232,248.578 348.566,250.411 346.5,252C 347.883,253.271 348.883,254.771 349.5,256.5 Z"/></g>
<g><path style="opacity:1" fill="#b2b1b2" d="M 329.5,258.5 C 331.026,259.105 332.026,260.271 332.5,262C 331.5,263 330.5,264 329.5,265C 330.756,265.417 331.423,266.25 331.5,267.5C 326.259,270.121 320.925,272.787 315.5,275.5C 312.527,273.853 309.86,271.853 307.5,269.5C 314.653,265.45 321.986,261.784 329.5,258.5 Z"/></g>
<g><path style="opacity:1" fill="#e2c759" d="M 244.5,263.5 C 244.833,263.5 245.167,263.5 245.5,263.5C 245.664,266.187 245.497,268.854 245,271.5C 243.602,276.343 242.102,281.01 240.5,285.5C 241.835,278.164 243.169,270.831 244.5,263.5 Z"/></g>
<g><path style="opacity:1" fill="#726950" d="M 302.5,262.5 C 303.167,262.5 303.5,262.833 303.5,263.5C 302.167,264.167 302.167,264.833 303.5,265.5C 304.349,268.681 306.015,271.348 308.5,273.5C 306.956,273.297 305.622,272.63 304.5,271.5C 304.167,271.833 303.833,272.167 303.5,272.5C 304.167,273.167 304.833,273.833 305.5,274.5C 304.05,275.85 303.383,277.516 303.5,279.5C 301.526,277.572 300.026,275.239 299,272.5C 298.333,273.5 298.333,274.5 299,275.5C 300.947,279.276 303.447,282.61 306.5,285.5C 304.801,285.34 303.134,285.506 301.5,286C 302.227,287.399 302.727,288.899 303,290.5C 304.649,291.648 306.149,292.981 307.5,294.5C 307.043,295.298 306.376,295.631 305.5,295.5C 299.439,291.779 295.772,286.445 294.5,279.5C 296.803,274.134 298.636,268.467 300,262.5C 300.77,261.402 301.603,261.402 302.5,262.5 Z"/></g>
<g><path style="opacity:1" fill="#7d7246" d="M 308.5,273.5 C 313.175,276.17 317.841,278.837 322.5,281.5C 318.918,280.734 315.418,280.734 312,281.5C 313.57,283.959 315.07,286.626 316.5,289.5C 311.591,286.926 307.258,283.592 303.5,279.5C 303.383,277.516 304.05,275.85 305.5,274.5C 304.833,273.833 304.167,273.167 303.5,272.5C 303.833,272.167 304.167,271.833 304.5,271.5C 305.622,272.63 306.956,273.297 308.5,273.5 Z"/></g>
<g><path style="opacity:1" fill="#fdf8cc" d="M 285.5,263.5 C 283.64,276.465 280.973,289.132 277.5,301.5C 278.568,292.425 280.068,283.425 282,274.5C 282.864,270.616 284.03,266.949 285.5,263.5 Z"/></g>
<g><path style="opacity:1" fill="#867941" d="M 306.5,285.5 C 311.37,288.766 316.37,291.766 321.5,294.5C 320.022,294.238 318.689,294.571 317.5,295.5C 316.74,297.36 315.74,299.027 314.5,300.5C 311.008,299.59 308.008,297.924 305.5,295.5C 306.376,295.631 307.043,295.298 307.5,294.5C 306.149,292.981 304.649,291.648 303,290.5C 302.727,288.899 302.227,287.399 301.5,286C 303.134,285.506 304.801,285.34 306.5,285.5 Z"/></g>
<g><path style="opacity:1" fill="#96833a" d="M 322.5,281.5 C 327.022,283.264 331.355,285.264 335.5,287.5C 332.873,286.908 330.206,286.575 327.5,286.5C 327.64,288.124 326.973,289.29 325.5,290C 326.563,291.188 327.897,291.688 329.5,291.5C 329.704,293.685 330.37,295.685 331.5,297.5C 326.307,295.072 321.307,292.405 316.5,289.5C 315.07,286.626 313.57,283.959 312,281.5C 315.418,280.734 318.918,280.734 322.5,281.5 Z"/></g>
<g><path style="opacity:1" fill="#ad932d" d="M 335.5,287.5 C 342.66,289.908 348.993,293.574 354.5,298.5C 351.149,297.102 347.816,295.602 344.5,294C 342.597,293.226 340.93,293.56 339.5,295C 343.832,296.117 345.165,298.617 343.5,302.5C 345.981,302.774 347.647,304.107 348.5,306.5C 343.019,303.258 337.352,300.258 331.5,297.5C 330.37,295.685 329.704,293.685 329.5,291.5C 327.897,291.688 326.563,291.188 325.5,290C 326.973,289.29 327.64,288.124 327.5,286.5C 330.206,286.575 332.873,286.908 335.5,287.5 Z"/></g>
<g><path style="opacity:1" fill="#a28a36" d="M 321.5,294.5 C 328.981,297.406 335.981,301.072 342.5,305.5C 338.562,303.87 334.562,302.203 330.5,300.5C 327.551,301.733 326.884,303.733 328.5,306.5C 330.167,307.167 331.833,307.833 333.5,308.5C 332.757,309.182 332.091,309.849 331.5,310.5C 325.332,307.92 319.665,304.586 314.5,300.5C 315.74,299.027 316.74,297.36 317.5,295.5C 318.689,294.571 320.022,294.238 321.5,294.5 Z"/></g>
<g><path style="opacity:1" fill="#c7a521" d="M 354.5,298.5 C 360.921,302.006 364.921,307.339 366.5,314.5C 368.981,320.748 368.815,327.081 366,333.5C 365,330.167 364,326.833 363,323.5C 362.303,321.416 361.136,319.749 359.5,318.5C 356.536,313.869 352.869,309.869 348.5,306.5C 347.647,304.107 345.981,302.774 343.5,302.5C 345.165,298.617 343.832,296.117 339.5,295C 340.93,293.56 342.597,293.226 344.5,294C 347.816,295.602 351.149,297.102 354.5,298.5 Z"/></g>
<g><path style="opacity:1" fill="#dfc76a" d="M 238.5,295.5 C 238.5,297.5 238.5,299.5 238.5,301.5C 251.167,301.5 263.833,301.5 276.5,301.5C 263.677,302.495 250.677,302.829 237.5,302.5C 237.198,299.941 237.532,297.607 238.5,295.5 Z"/></g>
<g><path style="opacity:1" fill="#b19729" d="M 342.5,305.5 C 344.434,306.11 346.101,307.11 347.5,308.5C 344.996,307.361 342.33,306.694 339.5,306.5C 340.002,310.014 340.335,313.347 340.5,316.5C 337.32,314.745 334.32,312.745 331.5,310.5C 332.091,309.849 332.757,309.182 333.5,308.5C 331.833,307.833 330.167,307.167 328.5,306.5C 326.884,303.733 327.551,301.733 330.5,300.5C 334.562,302.203 338.562,303.87 342.5,305.5 Z"/></g>
<g><path style="opacity:1" fill="#d0ab3a" d="M 263.5,312.5 C 267.676,311.831 269.009,313.331 267.5,317C 265.866,317.494 264.199,317.66 262.5,317.5C 262.366,315.708 262.699,314.042 263.5,312.5 Z"/></g>
<g><path style="opacity:1" fill="#dab40e" d="M 366.5,314.5 C 366.905,318.048 366.405,321.381 365,324.5C 363.496,321.316 361.996,318.149 360.5,315C 361.601,312.708 360.768,311.208 358,310.5C 357.667,310.833 357.333,311.167 357,311.5C 356.333,310.5 356.333,309.5 357,308.5C 358.916,308.355 360.749,308.855 362.5,310C 363.733,311.667 365.067,313.167 366.5,314.5 Z"/></g>
<g><path style="opacity:0.815" fill="#fcfcfc" d="M 160.5,314.5 C 165.244,314.038 166.244,315.538 163.5,319C 162.207,319.49 160.873,319.657 159.5,319.5C 159.366,317.708 159.699,316.042 160.5,314.5 Z"/></g>
<g><path style="opacity:0.958" fill="#f9f9f9" d="M 153.5,319.5 C 157.135,320.114 160.802,320.448 164.5,320.5C 164.5,326.5 164.5,332.5 164.5,338.5C 162.5,338.5 160.5,338.5 158.5,338.5C 158.666,333.821 158.499,329.155 158,324.5C 155.931,325.264 153.764,325.764 151.5,326C 153.473,326.495 155.473,326.662 157.5,326.5C 158.168,331.161 156.168,333.161 151.5,332.5C 152.5,337.5 150.5,339.5 145.5,338.5C 145.5,332.5 145.5,326.5 145.5,320.5C 148.385,320.806 151.052,320.473 153.5,319.5 Z"/></g>
<g><path style="opacity:0.976" fill="#f8f8f8" d="M 184.5,319.5 C 185.976,321.769 187.476,324.102 189,326.5C 189.837,324.649 190.671,322.816 191.5,321C 197.357,319.187 199.857,321.354 199,327.5C 202.467,319.565 207.8,317.899 215,322.5C 218.009,332.817 214.176,337.984 203.5,338C 201.333,337.167 199.833,335.667 199,333.5C 197.706,339.227 195.039,339.894 191,335.5C 190.417,337.002 189.584,338.335 188.5,339.5C 187.333,337.833 186.167,336.167 185,334.5C 184.51,335.793 184.343,337.127 184.5,338.5C 178.228,337.888 171.894,337.888 165.5,338.5C 165.5,332.5 165.5,326.5 165.5,320.5C 167.5,320.5 169.5,320.5 171.5,320.5C 171.5,324.5 171.5,328.5 171.5,332.5C 173.833,332.5 176.167,332.5 178.5,332.5C 178.177,328.774 178.511,325.107 179.5,321.5C 181.336,320.972 183.003,320.306 184.5,319.5 Z M 205.5,326.5 C 210.608,326.217 211.608,328.05 208.5,332C 207.216,332.684 206.049,332.517 205,331.5C 204.616,329.803 204.782,328.137 205.5,326.5 Z"/></g>
<g><path style="opacity:0.979" fill="#f8f8f8" d="M 218.5,320.5 C 222.404,320.061 224.904,321.728 226,325.5C 226.494,323.866 226.66,322.199 226.5,320.5C 228.833,320.5 231.167,320.5 233.5,320.5C 233.666,326.176 233.499,331.843 233,337.5C 231.186,338.76 229.353,338.76 227.5,337.5C 226.333,335.833 225.167,334.167 224,332.5C 223.808,334.577 223.308,336.577 222.5,338.5C 218.558,340.192 216.558,338.858 216.5,334.5C 217.038,329.765 217.705,325.099 218.5,320.5 Z"/></g>
<g><path style="opacity:1" fill="#c6a520" d="M 347.5,308.5 C 351.792,311.457 355.792,314.79 359.5,318.5C 364.199,327.566 364.699,336.899 361,346.5C 359.698,343.625 358.865,340.625 358.5,337.5C 359.496,337.414 360.329,337.748 361,338.5C 361.997,335.199 362.33,331.866 362,328.5C 360.402,325.359 358.902,322.192 357.5,319C 355.893,319.019 354.226,319.185 352.5,319.5C 352.481,321.06 352.148,322.56 351.5,324C 351.8,326.024 352.633,326.524 354,325.5C 354.505,327.518 355.005,329.518 355.5,331.5C 350.833,326.167 345.833,321.167 340.5,316.5C 340.335,313.347 340.002,310.014 339.5,306.5C 342.33,306.694 344.996,307.361 347.5,308.5 Z"/></g>
<g><path style="opacity:1" fill="#dab118" d="M 262.5,332.5 C 262.5,328.167 262.5,323.833 262.5,319.5C 266.419,318.973 270.419,318.806 274.5,319C 275.787,320.41 276.954,321.91 278,323.5C 278.494,321.866 278.66,320.199 278.5,318.5C 281.079,318.083 283.246,318.75 285,320.5C 285.676,325.871 285.509,331.204 284.5,336.5C 282.801,336.66 281.134,336.494 279.5,336C 278,333.833 276.5,331.667 275,329.5C 274.503,332.146 274.336,334.813 274.5,337.5C 272.064,337.683 269.897,337.016 268,335.5C 266.301,336.406 264.467,336.739 262.5,336.5C 262.5,335.167 262.5,333.833 262.5,332.5 Z"/></g>
<g><path style="opacity:1" fill="#d9af11" d="M 358.5,337.5 C 356.992,335.819 355.992,333.819 355.5,331.5C 355.005,329.518 354.505,327.518 354,325.5C 352.633,326.524 351.8,326.024 351.5,324C 352.148,322.56 352.481,321.06 352.5,319.5C 354.226,319.185 355.893,319.019 357.5,319C 358.902,322.192 360.402,325.359 362,328.5C 362.33,331.866 361.997,335.199 361,338.5C 360.329,337.748 359.496,337.414 358.5,337.5 Z"/></g>
<g><path style="opacity:1" fill="#e0b610" d="M 313.5,318.5 C 317.392,319.742 318.392,322.242 316.5,326C 317.044,326.717 317.711,327.217 318.5,327.5C 318.5,327.833 318.5,328.167 318.5,328.5C 317.579,329.981 316.412,331.314 315,332.5C 312.98,331.968 312.147,330.635 312.5,328.5C 310.901,328.232 309.568,328.566 308.5,329.5C 307.596,330.209 307.263,331.209 307.5,332.5C 308.833,332.5 310.167,332.5 311.5,332.5C 311.5,333.5 311.5,334.5 311.5,335.5C 309.167,335.5 306.833,335.5 304.5,335.5C 304.5,330.5 304.5,325.5 304.5,320.5C 307.564,320.072 310.564,319.406 313.5,318.5 Z M 308.5,329.5 C 309.675,329.281 310.675,329.614 311.5,330.5C 309.948,331.798 308.948,331.465 308.5,329.5 Z"/></g>
<g><path style="opacity:1" fill="#e1b70f" d="M 257.5,327.5 C 257.489,329.017 256.823,330.184 255.5,331C 256.094,331.464 256.761,331.631 257.5,331.5C 258.398,332.158 259.398,332.824 260.5,333.5C 260.333,333.833 260.167,334.167 260,334.5C 256.29,334.177 252.457,334.177 248.5,334.5C 248.5,333.167 248.5,331.833 248.5,330.5C 249.167,329.167 250.167,328.167 251.5,327.5C 254.236,324.343 253.236,323.009 248.5,323.5C 248.5,322.5 248.5,321.5 248.5,320.5C 252.452,319.728 256.452,319.395 260.5,319.5C 260.898,323.759 258.898,325.592 254.5,325C 256.119,325.236 257.119,326.069 257.5,327.5 Z"/></g>
<g><path style="opacity:1" fill="#dcb419" d="M 292.5,317.5 C 294.144,317.286 295.644,317.62 297,318.5C 299.34,324.019 301.173,329.686 302.5,335.5C 296.85,334.325 291.184,334.325 285.5,335.5C 286.999,330.172 288.499,324.839 290,319.5C 290.995,318.934 291.828,318.267 292.5,317.5 Z"/></g>
<g><path style="opacity:1" fill="#cca926" d="M 313.5,318.5 C 310.564,319.406 307.564,320.072 304.5,320.5C 304.5,325.5 304.5,330.5 304.5,335.5C 306.833,335.5 309.167,335.5 311.5,335.5C 311.5,334.5 311.5,333.5 311.5,332.5C 310.167,332.5 308.833,332.5 307.5,332.5C 307.263,331.209 307.596,330.209 308.5,329.5C 309.568,328.566 310.901,328.232 312.5,328.5C 312.147,330.635 312.98,331.968 315,332.5C 316.412,331.314 317.579,329.981 318.5,328.5C 318.919,331.325 317.919,333.491 315.5,335C 311.605,336.266 307.605,336.766 303.5,336.5C 303.334,330.824 303.501,325.157 304,319.5C 307.185,317.748 310.352,317.415 313.5,318.5 Z M 308.5,329.5 C 308.948,331.465 309.948,331.798 311.5,330.5C 310.675,329.614 309.675,329.281 308.5,329.5 Z"/></g>
<g><path style="opacity:1" fill="#d4ad25" d="M 318.5,327.5 C 318.963,324.518 319.296,321.518 319.5,318.5C 321.5,318.5 323.5,318.5 325.5,318.5C 325.5,322.167 325.5,325.833 325.5,329.5C 324.521,326.375 324.187,323.042 324.5,319.5C 323.167,319.5 321.833,319.5 320.5,319.5C 320.335,323.182 320.501,326.848 321,330.5C 321.687,332.555 322.854,334.221 324.5,335.5C 325.386,334.675 325.719,333.675 325.5,332.5C 328.059,332.61 330.392,331.944 332.5,330.5C 331.787,328.224 331.287,325.891 331,323.5C 330.626,325.491 329.793,327.158 328.5,328.5C 328.335,325.15 328.502,321.817 329,318.5C 330.699,317.594 332.533,317.261 334.5,317.5C 334.666,321.846 334.499,326.179 334,330.5C 331.983,335.924 328.15,337.758 322.5,336C 320.376,333.436 319.042,330.603 318.5,327.5 Z"/></g>
<g><path style="opacity:1" fill="#dfb80d" d="M 325.5,329.5 C 326.609,329.443 327.609,329.11 328.5,328.5C 329.793,327.158 330.626,325.491 331,323.5C 331.287,325.891 331.787,328.224 332.5,330.5C 330.392,331.944 328.059,332.61 325.5,332.5C 325.719,333.675 325.386,334.675 324.5,335.5C 322.854,334.221 321.687,332.555 321,330.5C 320.501,326.848 320.335,323.182 320.5,319.5C 321.833,319.5 323.167,319.5 324.5,319.5C 324.187,323.042 324.521,326.375 325.5,329.5 Z"/></g>
<g><path style="opacity:1" fill="#cfaa26" d="M 262.5,319.5 C 262.5,323.833 262.5,328.167 262.5,332.5C 261.751,333.531 261.085,334.698 260.5,336C 255.829,336.538 251.162,337.038 246.5,337.5C 246.338,335.473 246.505,333.473 247,331.5C 247.383,330.944 247.883,330.611 248.5,330.5C 248.5,331.833 248.5,333.167 248.5,334.5C 252.457,334.177 256.29,334.177 260,334.5C 260.167,334.167 260.333,333.833 260.5,333.5C 259.398,332.824 258.398,332.158 257.5,331.5C 258.542,330.209 259.708,330.209 261,331.5C 261.667,329.167 261.667,326.833 261,324.5C 259.961,325.71 258.794,326.71 257.5,327.5C 257.119,326.069 256.119,325.236 254.5,325C 258.898,325.592 260.898,323.759 260.5,319.5C 256.452,319.395 252.452,319.728 248.5,320.5C 248.5,321.5 248.5,322.5 248.5,323.5C 253.236,323.009 254.236,324.343 251.5,327.5C 251.649,326.448 251.483,325.448 251,324.5C 249.667,325.833 248.333,325.833 247,324.5C 246.506,322.866 246.34,321.199 246.5,319.5C 251.878,318.27 257.211,318.27 262.5,319.5 Z"/></g>
</svg>
